<svg width="91" height="89" viewBox="0 0 91 89" fill="none" xmlns="http://www.w3.org/2000/svg">
<path d="M62.392 61.68L46.696 73.416L46.192 75H58.36L62.392 61.68ZM61.816 60.096L54.04 48.36L52.096 54.768H39.496L60.448 26.112L54.688 46.056L63.184 59.016L80.176 0.911997H64.84L0.688 88.104H15.016L32.296 64.272H49.36L47.416 70.752L61.816 60.096Z" fill="white"/>
<path fill-rule="evenodd" clip-rule="evenodd" d="M32.0103 64.4145L32.0498 64.36H49.1138L47.1874 70.7812L49.9128 68.8101L61.5698 60.184L53.7938 48.448L51.8498 54.856H39.2498L41.1901 52.2022L41.1118 52.2017L41.7122 51.4881L60.2018 26.2L60.1063 26.5307L79.4679 1L64.5938 1.00001L18 64.3278L32.0103 64.4145Z" fill="#1890FF"/>
</svg>
